<svg xmlns="http://www.w3.org/2000/svg" viewBox="0 0 512 512" role="img" aria-labelledby="title desc">
  <title id="title">Almanion app icon</title>
  <desc id="desc">A minimal academic monogram: the letter A shaped as an open book, with a quiet Ivy League style blue-and-gold palette.</desc>
  <defs>
    <linearGradient id="almanion-bg" x1="72" y1="38" x2="438" y2="474" gradientUnits="userSpaceOnUse">
      <stop offset="0" stop-color="#2563EB"/>
      <stop offset="0.54" stop-color="#1E40AF"/>
      <stop offset="1" stop-color="#0F172A"/>
    </linearGradient>
    <linearGradient id="almanion-page" x1="194" y1="124" x2="322" y2="374" gradientUnits="userSpaceOnUse">
      <stop offset="0" stop-color="#FFFFFF"/>
      <stop offset="1" stop-color="#EAF0F8"/>
    </linearGradient>
    <filter id="soft-shadow" x="-20%" y="-20%" width="140%" height="145%" color-interpolation-filters="sRGB">
      <feDropShadow dx="0" dy="18" stdDeviation="18" flood-color="#020617" flood-opacity="0.24"/>
    </filter>
  </defs>

  <rect width="512" height="512" rx="112" fill="url(#almanion-bg)"/>
  <rect x="34" y="34" width="444" height="444" rx="92" fill="none" stroke="#E9C46A" stroke-width="8" opacity="0.68"/>
  <rect x="54" y="54" width="404" height="404" rx="76" fill="none" stroke="#F8FAFC" stroke-width="2" opacity="0.18"/>

  <g filter="url(#soft-shadow)">
    <path fill="url(#almanion-page)" fill-rule="evenodd" clip-rule="evenodd" d="M154 360L230 151C239 127 273 127 282 151L358 360H303L288 318H224L209 360H154ZM256 200L233 277H279L256 200Z"/>
    <path d="M222 316H290" fill="none" stroke="#E9C46A" stroke-width="16" stroke-linecap="round"/>
    <path d="M158 382C194 365 226 369 256 394C286 369 318 365 354 382" fill="none" stroke="#F8FAFC" stroke-width="14" stroke-linecap="round" stroke-linejoin="round"/>
    <path d="M181 410C207 401 233 405 256 421C279 405 305 401 331 410" fill="none" stroke="#E9C46A" stroke-width="9" stroke-linecap="round" stroke-linejoin="round"/>
  </g>
</svg>
