<svg xmlns="http://www.w3.org/2000/svg" viewBox="0 0 640 1555" role="img" aria-labelledby="title desc">
<title id="title">Графики изотермического процесса</title><desc id="desc">Точки 1 и 2 обозначают одни и те же состояния: при расширении давление уменьшается, температура постоянна. Изотермы p(V) являются гиперболами; в координатах p и плотности это прямые, причём большей температуре соответствует большая крутизна.</desc>
<defs><marker id="arrow" markerWidth="8" markerHeight="8" refX="7" refY="4" orient="auto-start-reverse" markerUnits="userSpaceOnUse"><path d="M1 1 L7 4 L1 7" fill="none" stroke="#263747" stroke-width="1.7"/></marker><marker id="route" markerWidth="12" markerHeight="12" refX="10" refY="6" orient="auto" markerUnits="userSpaceOnUse"><path d="M2 2 L10 6 L2 10" fill="none" stroke="#087f80" stroke-width="2.5"/></marker></defs>
<style>text{font-family:Arial,Helvetica,sans-serif;font-size:24px;fill:#263747}.heading{font-size:24px;font-weight:600}.small{font-size:21px}.math{font-family:Georgia,'Times New Roman',serif;font-size:27px;font-style:italic}.guide{stroke:#64748b;stroke-width:1.4;stroke-dasharray:6 6;fill:none}.axis{stroke:#263747;stroke-width:1.7;fill:none;marker-end:url(#arrow)}.wall{stroke:#263747;stroke-width:2.5;fill:none;stroke-linejoin:round}</style>
<rect width="640" height="1555" rx="12" fill="#fff"/><text x="28" y="36" class="heading">Одна изотерма: T = const</text><line x1="80" y1="330" x2="575" y2="330" class="axis"/><line x1="80" y1="330" x2="80" y2="80" class="axis"/><text x="571" y="364" class="math" text-anchor="end">V</text><text x="61" y="84" class="math" text-anchor="end">p</text><text x="63" y="359" class="small" text-anchor="end">0</text><path d="M143.75 99.41 L146.84 110.08 L149.94 119.81 L153.03 128.72 L156.13 136.90 L159.22 144.44 L162.31 151.41 L165.41 157.88 L168.50 163.90 L171.59 169.51 L174.69 174.75 L177.78 179.66 L180.88 184.28 L183.97 188.61 L187.06 192.70 L190.16 196.55 L193.25 200.20 L196.34 203.65 L199.44 206.92 L202.53 210.03 L205.63 212.99 L208.72 215.80 L211.81 218.48 L214.91 221.04 L218.00 223.48 L221.09 225.81 L224.19 228.05 L227.28 230.19 L230.38 232.24 L233.47 234.22 L236.56 236.11 L239.66 237.93 L242.75 239.68 L245.84 241.36 L248.94 242.99 L252.03 244.55 L255.13 246.06 L258.22 247.52 L261.31 248.92 L264.41 250.28 L267.50 251.60 L270.59 252.87 L273.69 254.10 L276.78 255.30 L279.88 256.45 L282.97 257.58 L286.06 258.66 L289.16 259.72 L292.25 260.74 L295.34 261.74 L298.44 262.70 L301.53 263.64 L304.63 264.56 L307.72 265.45 L310.81 266.31 L313.91 267.15 L317.00 267.97 L320.09 268.77 L323.19 269.55 L326.28 270.31 L329.38 271.05 L332.47 271.77 L335.56 272.48 L338.66 273.17 L341.75 273.84 L344.84 274.50 L347.94 275.14 L351.03 275.76 L354.13 276.37 L357.22 276.97 L360.31 277.56 L363.41 278.13 L366.50 278.69 L369.59 279.24 L372.69 279.78 L375.78 280.30 L378.88 280.82 L381.97 281.32 L385.06 281.81 L388.16 282.30 L391.25 282.77 L394.34 283.24 L397.44 283.69 L400.53 284.14 L403.63 284.58 L406.72 285.01 L409.81 285.43 L412.91 285.84 L416.00 286.25 L419.09 286.65 L422.19 287.04 L425.28 287.43 L428.38 287.80 L431.47 288.18 L434.56 288.54 L437.66 288.90 L440.75 289.25 L443.84 289.60 L446.94 289.94 L450.03 290.27 L453.13 290.60 L456.22 290.93 L459.31 291.25 L462.41 291.56 L465.50 291.87 L468.59 292.17 L471.69 292.47 L474.78 292.76 L477.88 293.05 L480.97 293.34 L484.06 293.62 L487.16 293.90 L490.25 294.17 L493.34 294.44 L496.44 294.70 L499.53 294.96 L502.63 295.22 L505.72 295.47 L508.81 295.72 L511.91 295.96 L515.00 296.21" fill="none" stroke="#176da3" stroke-width="3.5" /><circle cx="170" cy="166.66666666666666" r="5" fill="#176da3"/><text x="182" y="154.66666666666666" fill="#176da3" class="math">1</text><circle cx="417.5" cy="286.44444444444446" r="5" fill="#176da3"/><text x="429.5" y="274.44444444444446" fill="#176da3" class="math">2</text><text x="365" y="123" class="math">pV = const</text><g transform="translate(24 365)"><line x1="50" y1="270" x2="265" y2="270" class="axis"/><line x1="50" y1="270" x2="50" y2="80" class="axis"/><text x="261" y="304" class="math" text-anchor="end">T</text><text x="31" y="84" class="math" text-anchor="end">p</text><text x="33" y="299" class="small" text-anchor="end">0</text><line x1="154" y1="270" x2="154" y2="220" class="guide"/><line x1="154" y1="220" x2="154" y2="112" stroke="#176da3" stroke-width="3.5"/><circle cx="154" cy="112" r="5" fill="#176da3"/><text x="166" y="100" fill="#176da3" class="math">1</text><circle cx="154" cy="220" r="5" fill="#176da3"/><text x="166" y="208" fill="#176da3" class="math">2</text><text x="154" y="307" class="math" text-anchor="middle">T<tspan baseline-shift="sub" font-size="70%" font-style="normal">0</tspan></text></g><g transform="translate(344 365)"><line x1="50" y1="270" x2="265" y2="270" class="axis"/><line x1="50" y1="270" x2="50" y2="80" class="axis"/><text x="261" y="304" class="math" text-anchor="end">T</text><text x="31" y="84" class="math" text-anchor="end">V</text><text x="33" y="299" class="small" text-anchor="end">0</text><line x1="154" y1="270" x2="154" y2="220" class="guide"/><line x1="154" y1="220" x2="154" y2="112" stroke="#176da3" stroke-width="3.5"/><circle cx="154" cy="220" r="5" fill="#176da3"/><text x="166" y="208" fill="#176da3" class="math">1</text><circle cx="154" cy="112" r="5" fill="#176da3"/><text x="166" y="100" fill="#176da3" class="math">2</text><text x="154" y="307" class="math" text-anchor="middle">T<tspan baseline-shift="sub" font-size="70%" font-style="normal">0</tspan></text></g><text x="28" y="752" class="heading">Семейство изотерм: T<tspan baseline-shift="sub" font-size="70%" font-style="normal">1</tspan> &lt; T<tspan baseline-shift="sub" font-size="70%" font-style="normal">2</tspan> &lt; T<tspan baseline-shift="sub" font-size="70%" font-style="normal">3</tspan></text><line x1="80" y1="1050" x2="575" y2="1050" class="axis"/><line x1="80" y1="1050" x2="80" y2="800" class="axis"/><text x="571" y="1084" class="math" text-anchor="end">V</text><text x="61" y="804" class="math" text-anchor="end">p</text><text x="63" y="1079" class="small" text-anchor="end">0</text><path d="M125.83 814.80 L129.00 829.98 L132.16 843.32 L135.32 855.14 L138.48 865.67 L141.65 875.13 L144.81 883.66 L147.97 891.40 L151.13 898.45 L154.30 904.90 L157.46 910.83 L160.62 916.29 L163.78 921.33 L166.95 926.01 L170.11 930.37 L173.27 934.42 L176.43 938.21 L179.60 941.76 L182.76 945.09 L185.92 948.23 L189.08 951.18 L192.25 953.96 L195.41 956.59 L198.57 959.08 L201.73 961.45 L204.90 963.69 L208.06 965.82 L211.22 967.85 L214.38 969.78 L217.55 971.63 L220.71 973.39 L223.87 975.07 L227.03 976.68 L230.20 978.23 L233.36 979.71 L236.52 981.13 L239.68 982.49 L242.85 983.80 L246.01 985.06 L249.17 986.28 L252.33 987.45 L255.50 988.57 L258.66 989.66 L261.82 990.71 L264.98 991.72 L268.15 992.70 L271.31 993.65 L274.47 994.57 L277.63 995.45 L280.80 996.31 L283.96 997.15 L287.12 997.95 L290.28 998.74 L293.45 999.50 L296.61 1000.23 L299.77 1000.95 L302.93 1001.64 L306.10 1002.32 L309.26 1002.98 L312.42 1003.62 L315.58 1004.24 L318.75 1004.85 L321.91 1005.44 L325.07 1006.01 L328.23 1006.57 L331.40 1007.12 L334.56 1007.65 L337.72 1008.17 L340.88 1008.68 L344.05 1009.17 L347.21 1009.66 L350.37 1010.13 L353.53 1010.59 L356.70 1011.04 L359.86 1011.48 L363.02 1011.91 L366.18 1012.33 L369.35 1012.74 L372.51 1013.15 L375.67 1013.54 L378.83 1013.93 L382.00 1014.30 L385.16 1014.67 L388.32 1015.04 L391.48 1015.39 L394.65 1015.74 L397.81 1016.08 L400.97 1016.41 L404.13 1016.74 L407.30 1017.06 L410.46 1017.38 L413.62 1017.69 L416.78 1017.99 L419.95 1018.29 L423.11 1018.58 L426.27 1018.87 L429.43 1019.15 L432.60 1019.43 L435.76 1019.70 L438.92 1019.97 L442.08 1020.23 L445.25 1020.49 L448.41 1020.74 L451.57 1020.99 L454.73 1021.23 L457.90 1021.47 L461.06 1021.71 L464.22 1021.94 L467.38 1022.17 L470.55 1022.40 L473.71 1022.62 L476.87 1022.84 L480.03 1023.05 L483.20 1023.26 L486.36 1023.47 L489.52 1023.68 L492.68 1023.88 L495.85 1024.08 L499.01 1024.27 L502.17 1024.47 L505.33 1024.66" fill="none" stroke="#176da3" stroke-width="3.5" /><line x1="80" y1="976.5" x2="226.66666666666666" y2="976.5" class="guide"/><text x="66" y="984.5" class="math" text-anchor="end">p<tspan baseline-shift="sub" font-size="70%" font-style="normal">1</tspan></text><line x1="510.3333333333333" y1="1024.655172413793" x2="528" y2="1020" stroke="#176da3" stroke-width="1.3"/><text x="540" y="1028" class="math" fill="#176da3">T<tspan baseline-shift="sub" font-size="70%" font-style="normal">1</tspan></text><path d="M156.39 814.80 L159.30 823.42 L162.20 831.44 L165.11 838.91 L168.02 845.88 L170.93 852.41 L173.84 858.53 L176.74 864.29 L179.65 869.71 L182.56 874.82 L185.47 879.65 L188.38 884.22 L191.28 888.55 L194.19 892.66 L197.10 896.57 L200.01 900.29 L202.91 903.83 L205.82 907.21 L208.73 910.43 L211.64 913.52 L214.55 916.46 L217.45 919.29 L220.36 922.00 L223.27 924.60 L226.18 927.09 L229.09 929.49 L231.99 931.79 L234.90 934.01 L237.81 936.15 L240.72 938.21 L243.63 940.20 L246.53 942.11 L249.44 943.96 L252.35 945.75 L255.26 947.48 L258.16 949.16 L261.07 950.78 L263.98 952.34 L266.89 953.86 L269.80 955.34 L272.70 956.77 L275.61 958.15 L278.52 959.50 L281.43 960.80 L284.34 962.07 L287.24 963.31 L290.15 964.51 L293.06 965.67 L295.97 966.81 L298.87 967.91 L301.78 968.99 L304.69 970.04 L307.60 971.06 L310.51 972.06 L313.41 973.03 L316.32 973.97 L319.23 974.90 L322.14 975.80 L325.05 976.68 L327.95 977.54 L330.86 978.38 L333.77 979.20 L336.68 980.00 L339.58 980.79 L342.49 981.55 L345.40 982.30 L348.31 983.04 L351.22 983.76 L354.12 984.46 L357.03 985.15 L359.94 985.82 L362.85 986.48 L365.76 987.13 L368.66 987.76 L371.57 988.38 L374.48 988.99 L377.39 989.58 L380.29 990.17 L383.20 990.74 L386.11 991.31 L389.02 991.86 L391.93 992.40 L394.83 992.93 L397.74 993.46 L400.65 993.97 L403.56 994.47 L406.47 994.97 L409.37 995.45 L412.28 995.93 L415.19 996.40 L418.10 996.86 L421.01 997.31 L423.91 997.76 L426.82 998.20 L429.73 998.63 L432.64 999.05 L435.54 999.47 L438.45 999.88 L441.36 1000.28 L444.27 1000.68 L447.18 1001.07 L450.08 1001.45 L452.99 1001.83 L455.90 1002.20 L458.81 1002.57 L461.72 1002.93 L464.62 1003.29 L467.53 1003.64 L470.44 1003.98 L473.35 1004.32 L476.25 1004.66 L479.16 1004.99 L482.07 1005.31 L484.98 1005.64 L487.89 1005.95 L490.79 1006.26 L493.70 1006.57 L496.61 1006.87 L499.52 1007.17 L502.43 1007.47 L505.33 1007.76" fill="none" stroke="#087f80" stroke-width="3.5" /><line x1="80" y1="927.5" x2="226.66666666666666" y2="927.5" class="guide"/><text x="66" y="935.5" class="math" text-anchor="end">p<tspan baseline-shift="sub" font-size="70%" font-style="normal">2</tspan></text><line x1="510.3333333333333" y1="1007.7586206896551" x2="528" y2="981" stroke="#087f80" stroke-width="1.3"/><text x="540" y="989" class="math" fill="#087f80">T<tspan baseline-shift="sub" font-size="70%" font-style="normal">2</tspan></text><path d="M186.94 814.80 L189.60 820.49 L192.25 825.92 L194.90 831.09 L197.56 836.03 L200.21 840.76 L202.86 845.27 L205.52 849.60 L208.17 853.75 L210.82 857.73 L213.48 861.55 L216.13 865.23 L218.78 868.76 L221.44 872.16 L224.09 875.43 L226.74 878.59 L229.40 881.63 L232.05 884.57 L234.70 887.41 L237.36 890.15 L240.01 892.80 L242.66 895.36 L245.32 897.85 L247.97 900.25 L250.62 902.58 L253.28 904.84 L255.93 907.03 L258.58 909.15 L261.24 911.21 L263.89 913.21 L266.54 915.16 L269.19 917.05 L271.85 918.89 L274.50 920.68 L277.15 922.42 L279.81 924.11 L282.46 925.76 L285.11 927.37 L287.77 928.94 L290.42 930.46 L293.07 931.95 L295.73 933.40 L298.38 934.82 L301.03 936.20 L303.69 937.55 L306.34 938.87 L308.99 940.16 L311.65 941.42 L314.30 942.64 L316.95 943.85 L319.61 945.02 L322.26 946.17 L324.91 947.30 L327.57 948.40 L330.22 949.47 L332.87 950.53 L335.53 951.56 L338.18 952.57 L340.83 953.57 L343.49 954.54 L346.14 955.49 L348.79 956.42 L351.45 957.34 L354.10 958.23 L356.75 959.11 L359.41 959.98 L362.06 960.82 L364.71 961.65 L367.36 962.47 L370.02 963.27 L372.67 964.06 L375.32 964.83 L377.98 965.59 L380.63 966.33 L383.28 967.06 L385.94 967.78 L388.59 968.49 L391.24 969.18 L393.90 969.87 L396.55 970.54 L399.20 971.20 L401.86 971.85 L404.51 972.49 L407.16 973.12 L409.82 973.74 L412.47 974.34 L415.12 974.94 L417.78 975.53 L420.43 976.11 L423.08 976.68 L425.74 977.25 L428.39 977.80 L431.04 978.35 L433.70 978.88 L436.35 979.41 L439.00 979.94 L441.66 980.45 L444.31 980.96 L446.96 981.46 L449.62 981.95 L452.27 982.43 L454.92 982.91 L457.57 983.38 L460.23 983.85 L462.88 984.31 L465.53 984.76 L468.19 985.20 L470.84 985.64 L473.49 986.08 L476.15 986.51 L478.80 986.93 L481.45 987.34 L484.11 987.76 L486.76 988.16 L489.41 988.56 L492.07 988.96 L494.72 989.35 L497.37 989.73 L500.03 990.11 L502.68 990.49 L505.33 990.86" fill="none" stroke="#8455a5" stroke-width="3.5" /><line x1="80" y1="878.5" x2="226.66666666666666" y2="878.5" class="guide"/><text x="66" y="886.5" class="math" text-anchor="end">p<tspan baseline-shift="sub" font-size="70%" font-style="normal">3</tspan></text><line x1="510.3333333333333" y1="990.8620689655172" x2="528" y2="942" stroke="#8455a5" stroke-width="1.3"/><text x="540" y="950" class="math" fill="#8455a5">T<tspan baseline-shift="sub" font-size="70%" font-style="normal">3</tspan></text><line x1="226.66666666666666" y1="1050" x2="226.66666666666666" y2="878.5" class="guide"/><text x="226.66666666666666" y="1087" class="math" text-anchor="middle">V<tspan baseline-shift="sub" font-size="70%" font-style="normal">0</tspan></text><text x="28" y="1150" class="heading">Те же изотермы в координатах p и ρ</text><line x1="80" y1="1445" x2="575" y2="1445" class="axis"/><line x1="80" y1="1445" x2="80" y2="1205" class="axis"/><text x="571" y="1479" class="math" text-anchor="end">ρ</text><text x="61" y="1209" class="math" text-anchor="end">p</text><text x="63" y="1474" class="small" text-anchor="end">0</text><path d="M80.00 1445.00 L83.01 1444.36 L86.01 1443.72 L89.02 1443.07 L92.03 1442.43 L95.03 1441.79 L98.04 1441.15 L101.05 1440.50 L104.05 1439.86 L107.06 1439.22 L110.07 1438.58 L113.07 1437.93 L116.08 1437.29 L119.09 1436.65 L122.09 1436.01 L125.10 1435.37 L128.11 1434.72 L131.11 1434.08 L134.12 1433.44 L137.13 1432.80 L140.13 1432.15 L143.14 1431.51 L146.15 1430.87 L149.15 1430.23 L152.16 1429.58 L155.17 1428.94 L158.17 1428.30 L161.18 1427.66 L164.19 1427.01 L167.19 1426.37 L170.20 1425.73 L173.21 1425.09 L176.21 1424.45 L179.22 1423.80 L182.23 1423.16 L185.23 1422.52 L188.24 1421.88 L191.25 1421.23 L194.25 1420.59 L197.26 1419.95 L200.27 1419.31 L203.27 1418.66 L206.28 1418.02 L209.29 1417.38 L212.29 1416.74 L215.30 1416.10 L218.31 1415.45 L221.31 1414.81 L224.32 1414.17 L227.33 1413.53 L230.33 1412.88 L233.34 1412.24 L236.35 1411.60 L239.35 1410.96 L242.36 1410.31 L245.37 1409.67 L248.37 1409.03 L251.38 1408.39 L254.39 1407.74 L257.39 1407.10 L260.40 1406.46 L263.41 1405.82 L266.41 1405.18 L269.42 1404.53 L272.43 1403.89 L275.43 1403.25 L278.44 1402.61 L281.45 1401.96 L284.45 1401.32 L287.46 1400.68 L290.47 1400.04 L293.47 1399.39 L296.48 1398.75 L299.49 1398.11 L302.49 1397.47 L305.50 1396.83 L308.51 1396.18 L311.51 1395.54 L314.52 1394.90 L317.53 1394.26 L320.53 1393.61 L323.54 1392.97 L326.55 1392.33 L329.55 1391.69 L332.56 1391.04 L335.57 1390.40 L338.57 1389.76 L341.58 1389.12 L344.59 1388.47 L347.59 1387.83 L350.60 1387.19 L353.61 1386.55 L356.61 1385.91 L359.62 1385.26 L362.63 1384.62 L365.63 1383.98 L368.64 1383.34 L371.65 1382.69 L374.65 1382.05 L377.66 1381.41 L380.67 1380.77 L383.67 1380.12 L386.68 1379.48 L389.69 1378.84 L392.69 1378.20 L395.70 1377.56 L398.71 1376.91 L401.71 1376.27 L404.72 1375.63 L407.73 1374.99 L410.73 1374.34 L413.74 1373.70 L416.75 1373.06 L419.75 1372.42 L422.76 1371.77 L425.77 1371.13 L428.77 1370.49 L431.78 1369.85 L434.79 1369.20 L437.79 1368.56 L440.80 1367.92" fill="none" stroke="#176da3" stroke-width="3.5" /><line x1="80" y1="1388.6" x2="344" y2="1388.6" class="guide"/><text x="66" y="1396.6" class="math" text-anchor="end">p<tspan baseline-shift="sub" font-size="70%" font-style="normal">1</tspan></text><text x="455.79999999999995" y="1375.92" class="math">T<tspan baseline-shift="sub" font-size="70%" font-style="normal">1</tspan></text><path d="M80.00 1445.00 L83.01 1443.80 L86.01 1442.59 L89.02 1441.39 L92.03 1440.18 L95.03 1438.98 L98.04 1437.77 L101.05 1436.57 L104.05 1435.37 L107.06 1434.16 L110.07 1432.96 L113.07 1431.75 L116.08 1430.55 L119.09 1429.34 L122.09 1428.14 L125.10 1426.93 L128.11 1425.73 L131.11 1424.53 L134.12 1423.32 L137.13 1422.12 L140.13 1420.91 L143.14 1419.71 L146.15 1418.50 L149.15 1417.30 L152.16 1416.10 L155.17 1414.89 L158.17 1413.69 L161.18 1412.48 L164.19 1411.28 L167.19 1410.07 L170.20 1408.87 L173.21 1407.66 L176.21 1406.46 L179.22 1405.26 L182.23 1404.05 L185.23 1402.85 L188.24 1401.64 L191.25 1400.44 L194.25 1399.23 L197.26 1398.03 L200.27 1396.83 L203.27 1395.62 L206.28 1394.42 L209.29 1393.21 L212.29 1392.01 L215.30 1390.80 L218.31 1389.60 L221.31 1388.39 L224.32 1387.19 L227.33 1385.99 L230.33 1384.78 L233.34 1383.58 L236.35 1382.37 L239.35 1381.17 L242.36 1379.96 L245.37 1378.76 L248.37 1377.56 L251.38 1376.35 L254.39 1375.15 L257.39 1373.94 L260.40 1372.74 L263.41 1371.53 L266.41 1370.33 L269.42 1369.12 L272.43 1367.92 L275.43 1366.72 L278.44 1365.51 L281.45 1364.31 L284.45 1363.10 L287.46 1361.90 L290.47 1360.69 L293.47 1359.49 L296.48 1358.29 L299.49 1357.08 L302.49 1355.88 L305.50 1354.67 L308.51 1353.47 L311.51 1352.26 L314.52 1351.06 L317.53 1349.85 L320.53 1348.65 L323.54 1347.45 L326.55 1346.24 L329.55 1345.04 L332.56 1343.83 L335.57 1342.63 L338.57 1341.42 L341.58 1340.22 L344.59 1339.02 L347.59 1337.81 L350.60 1336.61 L353.61 1335.40 L356.61 1334.20 L359.62 1332.99 L362.63 1331.79 L365.63 1330.58 L368.64 1329.38 L371.65 1328.18 L374.65 1326.97 L377.66 1325.77 L380.67 1324.56 L383.67 1323.36 L386.68 1322.15 L389.69 1320.95 L392.69 1319.74 L395.70 1318.54 L398.71 1317.34 L401.71 1316.13 L404.72 1314.93 L407.73 1313.72 L410.73 1312.52 L413.74 1311.31 L416.75 1310.11 L419.75 1308.91 L422.76 1307.70 L425.77 1306.50 L428.77 1305.29 L431.78 1304.09 L434.79 1302.88 L437.79 1301.68 L440.80 1300.47" fill="none" stroke="#087f80" stroke-width="3.5" /><line x1="80" y1="1339.25" x2="344" y2="1339.25" class="guide"/><text x="66" y="1347.25" class="math" text-anchor="end">p<tspan baseline-shift="sub" font-size="70%" font-style="normal">2</tspan></text><text x="455.79999999999995" y="1308.475" class="math">T<tspan baseline-shift="sub" font-size="70%" font-style="normal">2</tspan></text><path d="M80.00 1445.00 L83.01 1443.23 L86.01 1441.47 L89.02 1439.70 L92.03 1437.93 L95.03 1436.17 L98.04 1434.40 L101.05 1432.64 L104.05 1430.87 L107.06 1429.10 L110.07 1427.34 L113.07 1425.57 L116.08 1423.80 L119.09 1422.04 L122.09 1420.27 L125.10 1418.50 L128.11 1416.74 L131.11 1414.97 L134.12 1413.20 L137.13 1411.44 L140.13 1409.67 L143.14 1407.91 L146.15 1406.14 L149.15 1404.37 L152.16 1402.61 L155.17 1400.84 L158.17 1399.07 L161.18 1397.31 L164.19 1395.54 L167.19 1393.77 L170.20 1392.01 L173.21 1390.24 L176.21 1388.47 L179.22 1386.71 L182.23 1384.94 L185.23 1383.18 L188.24 1381.41 L191.25 1379.64 L194.25 1377.88 L197.26 1376.11 L200.27 1374.34 L203.27 1372.58 L206.28 1370.81 L209.29 1369.04 L212.29 1367.28 L215.30 1365.51 L218.31 1363.74 L221.31 1361.98 L224.32 1360.21 L227.33 1358.45 L230.33 1356.68 L233.34 1354.91 L236.35 1353.15 L239.35 1351.38 L242.36 1349.61 L245.37 1347.85 L248.37 1346.08 L251.38 1344.31 L254.39 1342.55 L257.39 1340.78 L260.40 1339.02 L263.41 1337.25 L266.41 1335.48 L269.42 1333.72 L272.43 1331.95 L275.43 1330.18 L278.44 1328.42 L281.45 1326.65 L284.45 1324.88 L287.46 1323.12 L290.47 1321.35 L293.47 1319.58 L296.48 1317.82 L299.49 1316.05 L302.49 1314.29 L305.50 1312.52 L308.51 1310.75 L311.51 1308.99 L314.52 1307.22 L317.53 1305.45 L320.53 1303.69 L323.54 1301.92 L326.55 1300.15 L329.55 1298.39 L332.56 1296.62 L335.57 1294.85 L338.57 1293.09 L341.58 1291.32 L344.59 1289.56 L347.59 1287.79 L350.60 1286.02 L353.61 1284.26 L356.61 1282.49 L359.62 1280.72 L362.63 1278.96 L365.63 1277.19 L368.64 1275.42 L371.65 1273.66 L374.65 1271.89 L377.66 1270.12 L380.67 1268.36 L383.67 1266.59 L386.68 1264.83 L389.69 1263.06 L392.69 1261.29 L395.70 1259.53 L398.71 1257.76 L401.71 1255.99 L404.72 1254.23 L407.73 1252.46 L410.73 1250.69 L413.74 1248.93 L416.75 1247.16 L419.75 1245.39 L422.76 1243.63 L425.77 1241.86 L428.77 1240.10 L431.78 1238.33 L434.79 1236.56 L437.79 1234.80 L440.80 1233.03" fill="none" stroke="#8455a5" stroke-width="3.5" /><line x1="80" y1="1289.9" x2="344" y2="1289.9" class="guide"/><text x="66" y="1297.9" class="math" text-anchor="end">p<tspan baseline-shift="sub" font-size="70%" font-style="normal">3</tspan></text><text x="455.79999999999995" y="1241.03" class="math">T<tspan baseline-shift="sub" font-size="70%" font-style="normal">3</tspan></text><line x1="344" y1="1445" x2="344" y2="1289.9" class="guide"/><text x="344" y="1480" class="math" text-anchor="middle">ρ<tspan baseline-shift="sub" font-size="70%" font-style="normal">0</tspan></text><text x="80" y="1527" class="small">ρ — плотность газа</text>
</svg>
